HIERARCHY
ROOT Hips
{
  OFFSET 90.7885 88.945 -76.2838
  CHANNELS 6 Xposition Yposition Zposition Zrotation Xrotation Yrotation
  JOINT LeftUpLeg
  {
    OFFSET 8.64259 1.95398 -2.38835
    CHANNELS 3 Zrotation Xrotation Yrotation
    JOINT LeftLeg
    {
      OFFSET 43.7702 0 0
      CHANNELS 3 Zrotation Xrotation Yrotation
      JOINT LeftFoot
      {
        OFFSET 40.6238 0 0
        CHANNELS 3 Zrotation Xrotation Yrotation
        JOINT LeftToeBase
        {
          OFFSET 12.7242 0 0
          CHANNELS 3 Zrotation Xrotation Yrotation
          End Site
          {
            OFFSET 0 0 0
          }
        }
      }
    }
  }
  JOINT RightUpLeg
  {
    OFFSET -8.2249 1.95398 -2.59336
    CHANNELS 3 Zrotation Xrotation Yrotation
    JOINT RightLeg
    {
      OFFSET 43.5653 0 0
      CHANNELS 3 Zrotation Xrotation Yrotation
      JOINT RightFoot
      {
        OFFSET 40.6238 0 0
        CHANNELS 3 Zrotation Xrotation Yrotation
        JOINT RightToeBase
        {
          OFFSET 12.7242 0 0
          CHANNELS 3 Zrotation Xrotation Yrotation
          End Site
          {
            OFFSET 0 0 0
          }
        }
      }
    }
  }
  JOINT Spine
  {
    OFFSET 0.165834 0.87714 6.61349
    CHANNELS 3 Zrotation Xrotation Yrotation
    JOINT Spine1
    {
      OFFSET 7.38963 1.71661e-005 0
      CHANNELS 3 Zrotation Xrotation Yrotation
      JOINT Spine2
      {
        OFFSET 11.9445 1.14441e-005 0
        CHANNELS 3 Zrotation Xrotation Yrotation
        JOINT Spine3
        {
          OFFSET 14.7254 4.19617e-005 0
          CHANNELS 3 Zrotation Xrotation Yrotation
          JOINT Spine4
          {
            OFFSET 10.9679 0 0
            CHANNELS 3 Zrotation Xrotation Yrotation
            JOINT RightShoulder
            {
              OFFSET 2.46616 -1.6653 3.69651
              CHANNELS 3 Zrotation Xrotation Yrotation
              JOINT RightArm
              {
                OFFSET 13.0012 0 0
                CHANNELS 3 Zrotation Xrotation Yrotation
                JOINT RightForeArm
                {
                  OFFSET 28.7848 1.52588e-005 0
                  CHANNELS 3 Zrotation Xrotation Yrotation
                  JOINT RightHand
                  {
                    OFFSET 26.5688 1.52588e-005 0
                    CHANNELS 3 Zrotation Xrotation Yrotation
                    End Site
                    {
                      OFFSET 0 0 0
                    }
                  }
                }
              }
            }
            JOINT LeftShoulder
            {
              OFFSET 2.38034 -1.29275 -3.7523
              CHANNELS 3 Zrotation Xrotation Yrotation
              JOINT LeftArm
              {
                OFFSET 16.3182 6.10352e-005 0
                CHANNELS 3 Zrotation Xrotation Yrotation
                JOINT LeftForeArm
                {
                  OFFSET 27.0901 0 0
                  CHANNELS 3 Zrotation Xrotation Yrotation
                  JOINT LeftHand
                  {
                    OFFSET 24.5451 1.52588e-005 0
                    CHANNELS 3 Zrotation Xrotation Yrotation
                    End Site
                    {
                      OFFSET 0 0 0
                    }
                  }
                }
              }
            }
            JOINT Neck
            {
              OFFSET 5.0226 -0.0266342 0
              CHANNELS 3 Zrotation Xrotation Yrotation
              JOINT Head
              {
                OFFSET 6.69363 2.86102e-005 0
                CHANNELS 3 Zrotation Xrotation Yrotation
                End Site
                {
                  OFFSET 0 0 0
                }
              }
            }
          }
        }
      }
    }
  }
}
MOTION
Frames:	18
Frame Time:	0.0416667
48.0394 100.581 -255.447 -113.84 -82.1068 -116.37 -176.028 -3.31507 92.06 -6.52267 12.7989 -0.749593 69.0309 5.03709 4.31936 19.7645 -0.0339155 1.50282 170.369 -2.16583 87.765 -12.4704 -11.7085 -0.67478 70.5234 -4.82493 2.46608 24.5887 0.245726 0.39573 0.512928 7.55758 -90.0039 11.7597 1.01835 -0.115241 0.0891007 1.01229 -0.159966 -22.4492 1.0059 0.196177 -2.43654 1.0059 0.196166 92.4289 -29.2636 -102.146 38.7283 -25.2137 -11.1428 13.9097 -21.0625 -7.10457 -30.3866 0.216997 -10.321 -87.3787 -54.3503 83.3697 -18.0505 23.8044 -16.6327 4.16052 15.0189 -12.2882 -0.944484 -0.147201 -8.91444 5.31142 0.502525 0.152388 -10.4764 0.576294 -1.46334 
47.5803 100.602 -255.374 -113.206 -82.3288 -115.996 -176.347 -2.76289 91.9505 -7.46075 10.3289 -0.371488 69.5014 5.14482 1.7162 19.5832 -0.435602 2.06431 170.223 -2.14674 87.7785 -12.2119 -12.7256 -0.481071 69.9166 -4.70973 0.518304 25.4839 -0.327632 1.44812 0.326505 7.50584 -89.9923 11.8628 0.652959 -0.0543938 0.192002 0.649924 -0.0830774 -22.3445 0.639112 0.144372 -2.33183 0.63911 0.144369 90.4781 -29.1402 -106.135 43.0338 -16.2436 -3.65555 0.725127 -31.2941 -19.2226 -23.374 -1.06203 -7.948 -86.6682 -55.1646 84.5062 -18.5808 22.3734 -13.2277 5.79968 14.7235 -14.6381 -0.822076 -0.111009 -5.77025 3.21706 1.73553 1.25784 -9.16933 1.6253 -1.95959 
46.8413 100.705 -255.356 -112.333 -82.1974 -115.395 -176.705 -1.84849 92.0662 -9.22482 8.60252 0.300035 68.2721 4.2362 -2.05931 23.0268 -3.88957 6.12818 170.272 -2.58446 87.9384 -11.3936 -12.4796 -0.451635 69.7918 -4.84081 0.800925 25.3887 -0.359455 1.5369 0.365662 7.53472 -89.9315 11.8044 0.759426 0.0557395 0.13367 0.761142 0.022254 -22.4031 0.707558 0.281411 -2.39043 0.707559 0.28141 90.479 -30.1072 -105.768 41.9074 -16.6294 -4.33565 2.42153 -29.7863 -17.983 -23.1417 -0.900849 -8.30794 -86.5861 -53.8289 84.4304 -19.694 21.5618 -12.8044 6.43513 15.1424 -14.8821 1.05898 -0.102675 -5.12515 3.00203 1.47678 -0.425547 -9.39086 1.56435 -0.500024 
46.1223 100.528 -255.359 -110.722 -82.0371 -114.09 -176.292 -1.71658 92.4036 -9.34281 8.51997 -0.0504082 68.4878 4.53025 -2.24433 23.6961 -3.92835 6.15409 170.825 -2.06951 88.4016 -12.6564 -11.9081 -0.866495 71.0383 -5.18987 0.964758 24.3704 -0.0614187 1.09498 0.426899 7.57554 -89.8963 11.7227 0.897766 0.112318 0.0520403 0.901839 0.0726926 -22.4853 0.8225 0.376963 -2.47261 0.8225 0.376958 90.3788 -30.1587 -105.948 41.7757 -16.3282 -4.28333 2.03532 -29.9171 -18.1452 -23.9169 -0.978736 -7.84148 -86.6253 -53.1197 84.2685 -20.3734 20.4112 -12.6877 6.96399 15.0643 -14.8905 2.18757 -0.0969942 -4.51155 2.68648 1.26407 -0.616821 -9.10781 1.39739 -0.744629 
45.4233 100.239 -255.345 -112.996 -82.443 -116.7 -176.231 -0.268838 92.4999 -12.5776 8.53839 0.171229 69.8905 5.24864 -2.85915 24.1887 -4.15965 6.4391 170.587 -1.24906 88.3327 -14.8377 -12.0427 -0.558339 72.2339 -5.59795 0.179632 24.2263 -0.436945 1.91786 0.447486 7.62685 -89.7847 11.619 0.991029 0.326264 -0.0515653 1.00442 0.282327 -22.5887 0.847153 0.609043 -2.5761 0.847153 0.609045 90.4988 -31.2097 -105.331 41.6812 -16.7375 -4.92966 2.5264 -29.9467 -17.6183 -24.3116 -1.03193 -7.4978 -86.6456 -52.1408 84.0917 -20.7918 18.7143 -11.9734 7.80838 14.8848 -15.3314 1.11476 -0.107025 -4.91159 1.88427 0.76038 -2.44089 -8.33213 1.09854 0.632622 
44.7393 99.6463 -255.399 -120.239 -82.6044 -123.823 -176.164 3.05937 93.1246 -20.6396 8.28235 0.672294 72.1071 6.37559 -3.61138 26.2471 -4.2066 6.37158 170.309 -0.167029 88.3491 -18.9176 -11.4598 -0.0523414 74.5933 -6.14304 0.0775794 23.9289 -0.737972 2.58902 0.526154 7.78429 -89.8541 11.3048 1.11507 0.179573 -0.365628 1.12189 0.130311 -22.904 1.00954 0.506423 -2.89133 1.00954 0.506422 90.487 -30.3046 -105.68 42.4171 -17.346 -4.49298 1.74435 -31.473 -18.2139 -24.3926 -1.39918 -5.83991 -86.415 -53.8261 84.6763 -18.7752 18.1331 -11.8918 7.75278 12.7874 -16.0172 0.215524 -0.119097 -5.70478 1.0778 0.486383 -0.39911 -7.76688 0.599576 -1.15347 
44.142 99.2716 -255.495 -129.645 -83.7123 -133.064 -177.251 10.3159 92.2927 -33.5414 9.95522 2.21285 71.7689 6.42235 -1.6392 20.8693 -1.27359 3.02283 170.627 0.728227 89.1138 -22.0574 -7.56937 -0.0379197 77.2108 -6.39235 1.42264 22.6009 -1.5071 4.39779 0.550158 7.88002 -89.9253 11.1141 1.1298 0.0389555 -0.556373 1.13042 -0.0108208 -23.0952 1.06585 0.376742 -3.08251 1.06585 0.37674 89.942 -30.1787 -106.804 41.9574 -17.4544 -4.38121 2.47883 -31.3765 -17.3395 -23.8511 -1.28274 -6.43695 -86.2762 -54.9731 85.0375 -18.0756 16.9278 -10.8056 8.79023 11.9992 -18.3017 -1.30399 -0.117415 -7.11648 0.178181 0.4253 0.970242 -6.82147 0.372806 -2.11938 
43.7273 99.0688 -255.299 -132.58 -83.8125 -136.304 -178.401 16.4192 90.833 -42.2571 9.67276 2.9864 71.849 6.28639 -1.21219 17.7767 -0.197771 1.97759 170.634 0.816244 89.0919 -22.9673 -7.6674 -0.0977239 77.9884 -6.65159 1.14199 21.9851 -1.38451 4.23178 0.703544 7.99319 -89.9861 10.8887 1.40724 -0.104964 -0.781498 1.40125 -0.166811 -23.3225 1.37371 0.322909 -3.30988 1.37371 0.322899 90.1225 -28.886 -106.948 42.0872 -18.074 -4.95614 3.14987 -33.1276 -16.6644 -26.3313 -1.35355 -6.67596 -86.1874 -56.8742 85.4182 -16.7881 16.4789 -9.76467 8.38238 9.94684 -18.8278 -2.00554 -0.105534 -9.01554 -1.1708 0.0225225 2.6931 -5.89957 -0.201266 -3.62306 
43.4348 99.0042 -254.521 -132.297 -83.5923 -136.662 -179.248 19.7403 88.5894 -41.5959 10.6215 2.57092 70.6648 5.65442 -1.3264 18.4084 1.82345 -0.563905 170.668 0.120795 88.6224 -22.7155 -7.58389 -0.462323 78.1337 -6.54705 2.11754 25.1494 0.00999592 0.783598 0.788764 8.10399 -89.9078 10.6665 1.61331 0.0363045 -1.00347 1.61336 -0.0347707 -23.546 1.5278 0.519605 -3.53338 1.52781 0.519601 89.2715 -28.8018 -108.692 41.3733 -17.994 -5.72863 3.61671 -32.4038 -15.5698 -26.6043 -0.981296 -8.44342 -85.6386 -57.6499 86.2806 -16.4917 16.2494 -6.96407 8.58957 8.40403 -20.969 -1.95332 -0.101158 -7.73092 -2.06929 0.285819 3.59261 -6.01437 0.00166646 -4.39898 
42.7998 98.9356 -252.932 -137.008 -83.0509 -140.999 -179.114 20.364 87.59 -34.3632 14.2784 1.26202 68.3453 4.25406 -2.94357 18.1496 -1.71815 3.78625 170.889 -3.86001 89.4669 -18.8549 -8.31691 -0.537476 77.6423 -6.78113 1.56002 22.7146 -0.723249 2.7613 0.900382 8.25017 -89.9808 10.3771 1.80248 -0.120167 -1.29263 1.79544 -0.199417 -23.8375 1.75524 0.427283 -3.82488 1.75524 0.427272 89.6623 -27.6667 -108.378 42.1904 -18.4107 -6.31685 2.67576 -32.2205 -17.0604 -26.1914 -0.836296 -9.20837 -85.9153 -58.5436 86.0013 -16.1799 16.0388 -4.98107 7.9685 8.03161 -19.7091 -1.96165 -0.098964 -6.6641 -3.24867 0.318969 5.45629 -5.21794 -0.132798 -5.65755 
42.8553 98.696 -251.235 -121.634 -83.0504 -126.929 179.95 21.0136 84.6869 -21.6549 14.0487 -0.253826 65.9192 3.40926 -1.67595 19.8566 -1.31016 3.08209 169.779 -2.81453 87.3996 -19.6034 -10.4052 -0.430677 79.2466 -7.63793 1.43129 22.7397 -0.886241 3.06477 1.14562 8.18502 -89.7354 10.5014 2.40345 0.31255 -1.16739 2.41487 0.206401 -23.7177 2.19835 1.02077 -3.70504 2.19835 1.02076 89.5278 -28.6932 -108.221 41.5626 -18.5556 -6.92367 2.03514 -31.6384 -18.279 -26.2323 -0.786446 -9.29524 -86.5305 -55.477 84.7464 -20.593 13.6265 -3.57026 8.0377 9.58531 -15.72 -2.26333 -0.0955161 -7.51857 -3.8771 -0.176011 3.47799 -4.61345 -0.456214 -3.75548 
42.353 98.4357 -248.473 -116.95 -82.4775 -122.126 178.813 19.4253 83.6965 -9.79461 10.6702 -1.00485 64.6324 3.24197 -2.48271 17.7378 -0.0441526 1.8136 169.944 -4.87749 87.3325 -19.0748 -8.96519 -0.920449 80.74 -8.04645 2.41411 24.3545 -1.36033 3.85883 1.25069 8.2018 -89.7315 10.4686 2.61453 0.302043 -1.1997 2.62529 0.186604 -23.7531 2.40282 1.07429 -3.74048 2.40281 1.07429 89.3757 -28.6295 -108.553 41.176 -18.7604 -7.5948 2.23549 -31.66 -18.2385 -26.2516 -0.790236 -9.2746 -86.0143 -57.5053 85.7418 -19.2791 14.6199 -1.68638 6.9694 7.5407 -15.3387 -2.46626 -0.0880104 -6.85854 -4.03405 0.0977495 4.34584 -4.32136 -0.288277 -3.42021 
41.8262 97.686 -244.683 -114.359 -81.9284 -119.155 178.413 20.638 82.7903 -8.28234 4.91356 -1.96533 65.1494 3.63261 -1.20279 19.7335 0.489836 0.853681 169.411 -7.88404 86.9076 -18.2194 -8.32035 -0.816536 82.7563 -8.55365 4.64464 25.1894 -1.10519 3.19163 1.26833 8.1624 -89.8105 10.5495 2.61333 0.142491 -1.11883 2.61707 0.0272433 -23.6731 2.44961 0.921784 -3.66041 2.44962 0.921789 89.3895 -27.8928 -108.837 41.5045 -18.7949 -7.57581 2.54897 -31.9444 -17.3528 -26.4704 -0.881444 -8.84962 -86.2183 -59.5956 85.7284 -19.4547 13.7376 0.707232 6.75513 6.0603 -15.1323 -2.64003 -0.0917624 -6.97795 -4.62012 0.246786 6.08821 -3.99163 -0.296074 -3.6841 
40.8945 96.5576 -239.764 -105.753 -79.8738 -110.431 178.83 20.634 82.393 -9.91437 -1.09868 -2.534 64.4748 3.61946 -1.7979 16.4942 1.13446 0.536624 168.347 -11.2984 85.9052 -16.5022 -13.276 -0.568574 83.4674 -10.2613 0.686026 27.7519 -1.84067 4.46224 1.37041 8.06754 -89.8056 10.7398 2.81854 0.126675 -0.928094 2.82139 0.00239477 -23.4856 2.65007 0.968509 -3.47295 2.65008 0.968504 89.6614 -26.8186 -108.739 42.3724 -19.2224 -7.54892 2.83466 -33.1964 -16.8351 -26.3462 -1.10364 -8.05214 -85.2611 -62.9888 87.3998 -17.9522 11.9834 2.56596 7.02033 4.29667 -15.7507 -2.43396 -0.0887895 -6.74554 -3.40003 0.922643 8.24728 -4.63165 0.124659 -4.97601 
39.5215 96.4356 -233.626 -101.624 -77.0766 -105.861 -179.465 22.5295 82.659 -19.9859 0.525052 -2.93569 63.7237 2.13298 -1.75778 10.6346 -0.55429 3.30887 168.489 -16.2495 85.5361 -13.6741 -13.2812 -1.78856 80.4556 -9.09029 2.1332 31.76 -2.33784 5.22562 1.48611 7.96506 -89.6987 10.9424 3.09813 0.306067 -0.724908 3.1086 0.169273 -23.286 2.8628 1.22377 -3.27334 2.8628 1.22377 89.4687 -27.4232 -108.878 42.4314 -20.4011 -7.03334 4.49863 -31.7732 -15.8681 -25.8699 -1.19448 -7.08924 -85.2819 -63.3189 87.4065 -17.6328 10.0711 2.9585 6.7659 2.53428 -13.1234 -3.21137 -0.0730492 -6.81792 -1.97651 1.45674 7.68102 -5.59512 0.677553 -5.45806 
38.1345 96.9445 -226.761 -100.463 -75.1065 -105.036 -179.043 21.4076 81.9454 -26.2845 1.4421 -2.96523 66.0398 2.69272 -0.522661 6.96013 1.09647 2.01238 166.802 -16.5042 82.9981 -18.9378 -19.064 -2.08007 73.2927 -6.54451 0.32707 38.1507 -3.08613 6.5726 1.4921 7.85307 -89.4686 11.1603 3.21675 0.742897 -0.506808 3.24633 0.60046 -23.0666 2.84467 1.67598 -3.05396 2.84467 1.67597 89.5988 -27.3641 -108.634 44.9993 -19.3165 -5.10128 4.37105 -29.2116 -15.7448 -27.0306 -0.988112 -7.36814 -85.7003 -61.5204 86.6569 -17.4281 11.4779 1.9333 5.12489 -0.930159 -10.9781 -2.39367 -0.0894054 -6.366 -1.28024 1.29824 5.47013 -6.14965 0.761151 -4.85358 
37.1023 97.0182 -220.886 -100.935 -72.2101 -106.196 -178.202 18.3729 81.3645 -30.1541 -0.0773636 -4.11138 71.4314 4.74093 0.606968 9.10538 2.49736 0.272843 167.323 -6.37449 79.5467 -41.087 -26.3178 -3.30054 62.9191 -1.89177 0.75032 39.6679 -3.30601 7.1327 1.5 7.87843 -89.2387 11.1013 3.33916 1.19171 -0.565779 3.38837 1.04343 -23.1229 2.82661 2.14069 -3.11025 2.82661 2.14069 89.5997 -28.3535 -108.217 44.5832 -18.3432 -3.89542 3.55337 -29.852 -17.2957 -26.8001 -0.963376 -7.71033 -86.4353 -58.8027 85.3307 -17.4158 11.372 -2.11923 5.14092 -0.423935 -8.1565 -2.36504 -0.090656 -6.31234 -0.359745 1.61806 2.8718 -6.82531 1.33144 -2.81387 
36.3179 96.8902 -215.864 -103.129 -70.1842 -108.184 -178.273 15.1327 81.0112 -33.2226 -2.22541 -4.50775 75.6229 5.83611 0.780155 11.1401 2.82735 -0.412106 172.228 5.44078 79.0655 -60.996 -28.4866 -5.06094 53.9125 2.11423 3.40081 29.1643 -1.13261 2.53276 1.34967 8.05424 -89.2535 10.7509 3.03195 1.20405 -0.917018 3.082 1.06933 -23.4688 2.52993 2.05994 -3.45615 2.52992 2.05993 89.6024 -28.6468 -108.09 43.3263 -15.7006 -3.0814 1.53954 -29.8568 -19.7962 -25.5229 -0.80816 -8.67093 -86.8403 -57.2331 84.5588 -15.8267 11.1471 -9.23097 5.75977 2.988 -7.8107 -2.74582 -0.0851587 -6.69416 -0.260239 2.12147 2.13853 -5.95954 1.85937 -1.39183 
